<svg xmlns="http://www.w3.org/2000/svg" viewBox="-120.78830032348634 -2.5782836119333865 445.07512817382815 206.41165364583333" role="img" preserveAspectRatio="xMidYMid meet" 
     style="stroke-width: 8px; width: 69px; height: 32px;fill:rgb(242, 213, 68); stroke: rgba(242, 213, 68, 1);">
    <g>
        <path d="M156.124 46.421L103.09 5.431a3.245 3.245 0 0 0-4.003.019L47.109 46.44a3.252 3.252 0 0 0-.54 4.568c1.112 1.411 3.233 1.655 4.644.54L98 14.711V194.13c0 1.798 1.202 3.253 3 3.253s3-1.455 3-3.253V14.63l47.969 36.937c.591.457 1.379.68 2.077.68.972 0 1.976-.435 2.618-1.264 1.1-1.42.883-3.463-.54-4.562z"></path>
    </g>
</svg>