<svg xmlns="http://www.w3.org/2000/svg" viewBox="17 7 174.94400024414062 174.94400024414062" role="img" preserveAspectRatio="xMidYMid meet" style="stroke-width: 0px; width: 25px; height: 25px;fill: #d69e2e;">
        <g style="fill: #d69e2e;">
            <path d="M144.005 75.172c-1.245-1.245-3.424-1.245-4.669 0l-34.864 35.175-34.864-35.175c-1.245-1.245-3.424-1.245-4.669 0l-2.49 2.49c-1.245 1.245-1.245 3.424 0 4.669l39.533 39.534c1.245 1.245 3.424 1.245 4.669 0l2.49-2.49 37.354-37.354c1.245-1.245 1.245-3.424 0-4.669l-2.49-2.18z"></path>
            <path d="M104.472 7C56.222 7 17 46.222 17 94.472s39.222 87.472 87.472 87.472 87.472-39.222 87.472-87.472S152.721 7 104.472 7zm0 164.671c-42.646 0-77.199-34.553-77.199-77.199s34.553-77.199 77.199-77.199 77.199 34.553 77.199 77.199-34.553 77.199-77.199 77.199z"></path>
        </g>
    </svg>