<svg xmlns="http://www.w3.org/2000/svg" viewBox="22.838375874054734 21.59579164553911 157.80941615960538 157.80941615960538" role="img" preserveAspectRatio="xMidYMid meet" 
	style="stroke-width: 1px; width: 79px; height: 79px;fill: #FAE67F;fill-opacity: 0.5;stroke: rgba(255, 255, 255, 1);">
    <g>
        <path d="M166.1 91.284V80.177a3.385 3.385 0 0 0-3.387-3.387H40.774a3.385 3.385 0 0 0-3.387 3.387v11.107c0 11.081-3.834 19.258-7.545 27.171-3.073 6.543-5.978 12.735-5.978 19.622 0 17.769 8.498 26.78 25.259 26.78h105.24c16.76 0 25.258-9.011 25.258-26.78 0-6.887-2.904-13.079-5.977-19.622-3.71-7.913-7.544-16.089-7.544-27.171z"></path>
        <path d="M162.501 63.241h-47.298c2.15-2.832 3.476-6.338 3.476-10.175 0-9.328-7.597-16.922-16.936-16.922-9.338 0-16.936 7.595-16.936 16.922 0 3.837 1.326 7.343 3.477 10.175H40.986c-8.332 0-17.148 9.322-17.148 18.133v15.739a3.385 3.385 0 0 0 3.387 3.387 3.385 3.385 0 0 0 3.387-3.387V81.374c0-5.094 5.72-11.359 10.374-11.359h121.515c4.654 0 10.373 6.265 10.373 11.359v15.739a3.385 3.385 0 0 0 3.387 3.387 3.385 3.385 0 0 0 3.387-3.387V81.374c.001-8.811-8.814-18.133-17.147-18.133z"></path>
    </g>
</svg>