<svg xmlns="http://www.w3.org/2000/svg" viewBox="1.0480754253191833 0.5480780479235534 197.80384924472907 197.80384924472907" role="img" preserveAspectRatio="xMidYMid meet" 
	style="stroke-width: 1px; width: 79px; height: 79px;fill: #FAE67F;fill-opacity: 0.5;stroke: rgba(255, 255, 255, 1);">
    <g>
        <path d="M197.5 177.3c0 9.6-8.3 9.8-8.3 9.8h-66.6c3.9-3 7.3-6 10.3-8.9h55.5c0-.2.1-.5.1-.9v-.1c-.1-.9-.7-3.1-.9-3.9-1.8-6.4-4.9-20.1-4.9-40.4 0-19.7 2.8-36.2 4.5-46v-.2c.3-1.9.7-4.4.9-5.6h-65.4c.2 1.2.6 3.7.9 5.6v.2c.4 2.1.8 4.4 1.2 7-1.6-1.1-3.2-2-4.8-2.9-1.9-1-3.7-2.1-5.3-3.3-.6-3.2-1-6-1-7-.5-8.4 7.8-8.6 8.5-8.6h66.4c.7 0 9 .2 8.5 8.6 0 1.1-.5 4.2-1.1 7.7-1.6 9.6-4.4 25.6-4.4 44.5 0 19.2 2.9 32 4.6 37.9.5 1.8 1.3 4.6 1.3 6.5zM166.9 39.7v-3.3c1-.3 1.5-.5 1.5-.5.5-.2.8-.8.8-1.4v-8.6s9.5-9.2 19.6-6.7c2 .6 3.1 1.3 3.1 1.3s2-3.9 2.8-5.2c-4.1-2.3-9-3.9-25.4-1.9-1 .1-5.4.3-8 .4h-18.7c-.5 0-.9.4-.9 1v19.7c0 .5.4 1.1.8 1.4 0 0 .5.2 1.5.5v3.3h22.9zm-29 23.2h35c.6-.3 1.1-1.1 1.1-1.8V41.6c0-.7-.5-1.5-1.1-1.8h-6c0 .4-.3.9-.7 1.1 0 0-2.8 1.4-10.8 1.4s-10.7-1.4-10.7-1.4c-.4-.2-.7-.7-.7-1.1h-6c-.6.3-1.1 1.2-1.1 1.9v19.5c-.1.6.4 1.4 1 1.7zM50.7 42.5h5.9v.3c.2 1.5 1.6 2.8 3.1 2.8h26c1.5 0 2.9-1.2 3.1-2.8v-.3h4.9c1.6 0 2.8-1.3 2.8-2.8V39c0-1.6-1.3-2.8-2.8-2.8h-4.2l1.9-16.7c.2-1.5-.9-2.8-2.5-2.8H56.5c-1.5 0-2.7 1.2-2.5 2.8l1.8 16.7h-5.1c-1.6 0-2.8 1.3-2.8 2.8v.7c-.1 1.5 1.2 2.8 2.8 2.8zm92.1 95.7c-.3-18-14-32.4-27-39.4-23-12.5-26-32.5-26-44.5v-2.9h-8.9v2.9c0 23.4 10.6 41.5 30.7 52.4 10.1 5.5 22.1 17.1 22.3 31.7.3 16.9-15.7 31-30 40.2H41.5c-14.3-9.2-30.3-23.3-30-40.2.2-14.6 12.1-26.2 22.3-31.7 20.1-10.8 30.7-29 30.7-52.4v-2.9h-8.9v2.9c0 12-2.9 32.1-26 44.5-13 7-26.7 21.4-27 39.4-.3 17.4 12.3 34.4 36.4 49.3h67.4c24-14.9 36.6-31.9 36.4-49.3z"></path>
    </g>
</svg>