<svg xmlns="http://www.w3.org/2000/svg" viewBox="13.695384979248047 14.33932113647461 169.167236328125 169.167236328125" role="img" preserveAspectRatio="xMidYMid meet" 
	style="stroke-width: 1px; width: 79px; height: 79px;fill: #FAE67F;fill-opacity: 0.5;stroke: rgba(255, 255, 255, 1);">
    <g>
        <path d="M143.882 63.71c0-22.801-19.501-48.3-45.603-48.3-26.096 0-45.603 25.499-45.603 48.3 0 19.438 15.104 54.66 36.852 62.503-1.449 1.873-2.344 4.195-2.344 6.733 0 3.121 1.311 5.937 3.398 7.955-.472 3.807 1.665 7.774 3.773 11.65 1.831 3.35 3.717 6.816 3.495 9.383-.278 3.225-1.928 5.617-3.676 8.155-1.81 2.615-3.676 5.319-3.676 8.793a3.544 3.544 0 0 0 3.551 3.551 3.553 3.553 0 0 0 3.551-3.551c0-1.262 1.116-2.885 2.414-4.757 1.997-2.892 4.479-6.484 4.91-11.581.402-4.702-2.108-9.32-4.327-13.391-.888-1.616-1.886-3.523-2.483-5.125.055 0 .111.014.166.014 6.116 0 11.096-4.979 11.096-11.096 0-2.538-.895-4.861-2.33-6.733 21.732-7.843 36.836-43.065 36.836-62.503zM98.279 36.713c-1.956 0-3.551-1.588-3.551-3.551s1.595-3.551 3.551-3.551c17.683 0 31.401 18.328 31.401 34.098a3.544 3.544 0 0 1-3.551 3.551 3.549 3.549 0 0 1-3.551-3.551c0-12.149-11.206-26.996-24.299-26.996z"></path>
    </g>
</svg>