<svg xmlns="http://www.w3.org/2000/svg" viewBox="15.18985767853566 11.487656788948257 170.61614951109274 170.61614951109274" role="img" preserveAspectRatio="xMidYMid meet" 
	style="stroke-width: 1px; width: 79px; height: 79px;fill: #FAE67F;fill-opacity: 0.5;stroke: rgba(255, 255, 255, 1);">
    <g>
        <path d="M164.172 59.047V18.971a3.48 3.48 0 0 0-3.483-3.483h-27.868a3.481 3.481 0 0 0-3.483 3.483v10.5l34.834 29.576z"></path>
        <path d="M182.92 84.292l-18.916-16.634-42.46-36.839-18.69-16.213a3.486 3.486 0 0 0-4.568.003l-80.188 69.67a3.482 3.482 0 0 0 2.282 6.114h10.593v87.087a3.481 3.481 0 0 0 3.483 3.484h48.769a3.482 3.482 0 0 0 3.484-3.484v-45.285h27.868v45.285a3.481 3.481 0 0 0 3.483 3.484h48.769a3.482 3.482 0 0 0 3.484-3.484V90.392h10.307a3.476 3.476 0 0 0 3.259-2.252 3.493 3.493 0 0 0-.959-3.848z"></path>
    </g>
</svg>