<svg xmlns="http://www.w3.org/2000/svg" viewBox="24.43697968507425 11.382632646805206 165.3760520739433 165.3760520739433" role="img" preserveAspectRatio="xMidYMid meet" 
	style="stroke-width: 1px; width: 79px; height: 79px;fill: #FAE67F;fill-opacity: 0.5;stroke: rgba(255, 255, 255, 1);">
    <g>
        <path d="M167.229 106.847c-2.751 0-5.328.665-7.662 1.771 1.045-7.482 1.391-14.38 1.391-19.732v-3.473H28.982v3.473c0 21.388 4.908 66.781 42.921 79.88H35.928c-1.919 0-3.473 1.553-3.473 3.473s1.554 3.473 3.473 3.473h118.083c1.92 0 3.473-1.553 3.473-3.473s-1.553-3.473-3.473-3.473h-35.975c17.701-6.098 28.256-19.129 34.418-33.577 3.266 4.674 8.659 7.746 14.774 7.746 9.944 0 18.04-8.099 18.04-18.043 0-9.946-8.095-18.045-18.039-18.045zm0 29.141c-6.115 0-11.087-4.979-11.094-11.09.522-1.798 1.031-3.602 1.452-5.393 1.899-3.385 5.487-5.712 9.643-5.712 6.118 0 11.094 4.979 11.094 11.098-.002 6.118-4.977 11.097-11.095 11.097z"></path>
        <path d="M70.078 62.47a3.475 3.475 0 0 0 4.912 0 3.466 3.466 0 0 0 0-4.911c-1.978-1.98-1.001-5.48.841-11.016 1.926-5.773 4.32-12.97-.841-18.125a3.472 3.472 0 1 0-4.912 4.911c1.984 1.981 1.008 5.481-.838 11.016-1.926 5.78-4.32 12.971.838 18.125z"></path>
        <path d="M84.649 62.47a3.46 3.46 0 0 0 2.455 1.018 3.471 3.471 0 0 0 2.455-5.929c-2.33-2.333-.434-11.803.95-18.722 2.059-10.304 4.006-20.038-.95-24.99a3.472 3.472 0 1 0-4.911 4.912c2.327 2.326.431 11.796-.95 18.715-2.061 10.304-4.008 20.038.951 24.996z"></path>
        <path d="M99.216 62.47a3.45 3.45 0 0 0 2.455 1.018 3.471 3.471 0 0 0 2.455-5.929c-1.981-1.98-1.004-5.48.838-11.016 1.926-5.773 4.325-12.97-.838-18.125a3.471 3.471 0 0 0-4.911 0 3.466 3.466 0 0 0 0 4.911c1.98 1.981 1.004 5.481-.838 11.016-1.925 5.78-4.323 12.971.839 18.125z"></path>
    </g>
</svg>